<mxfile host="app.diagrams.net" modified="2024-05-14T05:01:09.945Z" agent="Mozilla/5.0 (Windows NT 10.0; Win64; x64) AppleWebKit/537.36 (KHTML, like Gecko) Chrome/124.0.0.0 Safari/537.36" etag="2YLr0UK5SWgo1tDokD6V" version="24.3.1" type="device">
  <diagram name="Page-1" id="Y2cWwmsrTIJXTLP7YRKP">
    <mxGraphModel dx="1644" dy="1600" grid="1" gridSize="10" guides="1" tooltips="1" connect="1" arrows="1" fold="1" page="1" pageScale="1" pageWidth="850" pageHeight="1100" math="0" shadow="0">
      <root>
        <mxCell id="0" />
        <mxCell id="1" parent="0" />
        <mxCell id="qcfkSIcu1BjDuyAQSuf_-1" value="START" style="ellipse;whiteSpace=wrap;html=1;aspect=fixed;" vertex="1" parent="1">
          <mxGeometry x="385" y="-310" width="60" height="60" as="geometry" />
        </mxCell>
        <mxCell id="qcfkSIcu1BjDuyAQSuf_-2" value="" style="endArrow=classic;html=1;rounded=0;exitX=0.5;exitY=1;exitDx=0;exitDy=0;" edge="1" parent="1" source="qcfkSIcu1BjDuyAQSuf_-1">
          <mxGeometry width="50" height="50" relative="1" as="geometry">
            <mxPoint x="410" y="-230" as="sourcePoint" />
            <mxPoint x="415" y="-200" as="targetPoint" />
          </mxGeometry>
        </mxCell>
        <mxCell id="qcfkSIcu1BjDuyAQSuf_-3" value="SELECT PAYMENT OPTIONS" style="rounded=1;whiteSpace=wrap;html=1;" vertex="1" parent="1">
          <mxGeometry x="355" y="-200" width="120" height="60" as="geometry" />
        </mxCell>
        <mxCell id="qcfkSIcu1BjDuyAQSuf_-4" value="" style="endArrow=classic;html=1;rounded=0;exitX=0;exitY=0.5;exitDx=0;exitDy=0;" edge="1" parent="1" source="qcfkSIcu1BjDuyAQSuf_-3">
          <mxGeometry width="50" height="50" relative="1" as="geometry">
            <mxPoint x="380" y="-20" as="sourcePoint" />
            <mxPoint x="30" y="-170" as="targetPoint" />
          </mxGeometry>
        </mxCell>
        <mxCell id="qcfkSIcu1BjDuyAQSuf_-5" value="" style="endArrow=classic;html=1;rounded=0;exitX=1;exitY=0.5;exitDx=0;exitDy=0;" edge="1" parent="1" source="qcfkSIcu1BjDuyAQSuf_-3">
          <mxGeometry width="50" height="50" relative="1" as="geometry">
            <mxPoint x="290" y="-30" as="sourcePoint" />
            <mxPoint x="790" y="-170" as="targetPoint" />
          </mxGeometry>
        </mxCell>
        <mxCell id="qcfkSIcu1BjDuyAQSuf_-6" value="" style="endArrow=classic;html=1;rounded=0;" edge="1" parent="1">
          <mxGeometry width="50" height="50" relative="1" as="geometry">
            <mxPoint x="290" y="-170" as="sourcePoint" />
            <mxPoint x="290" y="-110" as="targetPoint" />
          </mxGeometry>
        </mxCell>
        <mxCell id="qcfkSIcu1BjDuyAQSuf_-7" value="" style="endArrow=classic;html=1;rounded=0;" edge="1" parent="1">
          <mxGeometry width="50" height="50" relative="1" as="geometry">
            <mxPoint x="110" y="-170" as="sourcePoint" />
            <mxPoint x="110" y="-110" as="targetPoint" />
          </mxGeometry>
        </mxCell>
        <mxCell id="qcfkSIcu1BjDuyAQSuf_-8" value="" style="endArrow=classic;html=1;rounded=0;" edge="1" parent="1">
          <mxGeometry width="50" height="50" relative="1" as="geometry">
            <mxPoint x="550" y="-170" as="sourcePoint" />
            <mxPoint x="550" y="-110" as="targetPoint" />
          </mxGeometry>
        </mxCell>
        <mxCell id="qcfkSIcu1BjDuyAQSuf_-9" value="" style="endArrow=classic;html=1;rounded=0;" edge="1" parent="1">
          <mxGeometry width="50" height="50" relative="1" as="geometry">
            <mxPoint x="720" y="-170" as="sourcePoint" />
            <mxPoint x="720" y="-110" as="targetPoint" />
          </mxGeometry>
        </mxCell>
        <mxCell id="qcfkSIcu1BjDuyAQSuf_-10" value="UPI" style="rounded=0;whiteSpace=wrap;html=1;" vertex="1" parent="1">
          <mxGeometry x="60" y="-110" width="100" height="40" as="geometry" />
        </mxCell>
        <mxCell id="qcfkSIcu1BjDuyAQSuf_-11" value="CASH ON DELEVERY" style="rounded=0;whiteSpace=wrap;html=1;" vertex="1" parent="1">
          <mxGeometry x="670" y="-110" width="130" height="40" as="geometry" />
        </mxCell>
        <mxCell id="qcfkSIcu1BjDuyAQSuf_-12" value="NET BANKING" style="rounded=0;whiteSpace=wrap;html=1;" vertex="1" parent="1">
          <mxGeometry x="500" y="-110" width="100" height="40" as="geometry" />
        </mxCell>
        <mxCell id="qcfkSIcu1BjDuyAQSuf_-13" value="CREDIT/DEBIT CARD" style="rounded=0;whiteSpace=wrap;html=1;" vertex="1" parent="1">
          <mxGeometry x="240" y="-110" width="100" height="40" as="geometry" />
        </mxCell>
        <mxCell id="qcfkSIcu1BjDuyAQSuf_-14" value="" style="endArrow=classic;html=1;rounded=0;exitX=0.5;exitY=1;exitDx=0;exitDy=0;" edge="1" parent="1" source="qcfkSIcu1BjDuyAQSuf_-10">
          <mxGeometry width="50" height="50" relative="1" as="geometry">
            <mxPoint x="130" y="-60" as="sourcePoint" />
            <mxPoint x="110" y="10" as="targetPoint" />
          </mxGeometry>
        </mxCell>
        <mxCell id="qcfkSIcu1BjDuyAQSuf_-15" value="ENTER UPI ID/UPI NUMBER" style="rounded=1;whiteSpace=wrap;html=1;" vertex="1" parent="1">
          <mxGeometry x="50" y="10" width="120" height="60" as="geometry" />
        </mxCell>
        <mxCell id="qcfkSIcu1BjDuyAQSuf_-16" value="" style="endArrow=classic;html=1;rounded=0;exitX=0.5;exitY=1;exitDx=0;exitDy=0;" edge="1" parent="1" source="qcfkSIcu1BjDuyAQSuf_-15">
          <mxGeometry width="50" height="50" relative="1" as="geometry">
            <mxPoint x="390" y="60" as="sourcePoint" />
            <mxPoint x="110" y="140" as="targetPoint" />
          </mxGeometry>
        </mxCell>
        <mxCell id="qcfkSIcu1BjDuyAQSuf_-17" value="UPI VALID" style="rhombus;whiteSpace=wrap;html=1;" vertex="1" parent="1">
          <mxGeometry x="70" y="140" width="80" height="80" as="geometry" />
        </mxCell>
        <mxCell id="qcfkSIcu1BjDuyAQSuf_-18" value="" style="endArrow=classic;html=1;rounded=0;exitX=1;exitY=0.5;exitDx=0;exitDy=0;" edge="1" parent="1" source="qcfkSIcu1BjDuyAQSuf_-17">
          <mxGeometry width="50" height="50" relative="1" as="geometry">
            <mxPoint x="340" y="70" as="sourcePoint" />
            <mxPoint x="210" y="180" as="targetPoint" />
          </mxGeometry>
        </mxCell>
        <mxCell id="qcfkSIcu1BjDuyAQSuf_-22" value="YES" style="text;html=1;align=center;verticalAlign=middle;resizable=0;points=[];autosize=1;strokeColor=none;fillColor=none;" vertex="1" parent="1">
          <mxGeometry x="145" y="148" width="50" height="30" as="geometry" />
        </mxCell>
        <mxCell id="qcfkSIcu1BjDuyAQSuf_-23" value="" style="endArrow=classic;html=1;rounded=0;exitX=0;exitY=0.5;exitDx=0;exitDy=0;" edge="1" parent="1" source="qcfkSIcu1BjDuyAQSuf_-17">
          <mxGeometry width="50" height="50" relative="1" as="geometry">
            <mxPoint x="340" y="70" as="sourcePoint" />
            <mxPoint x="10" y="180" as="targetPoint" />
          </mxGeometry>
        </mxCell>
        <mxCell id="qcfkSIcu1BjDuyAQSuf_-24" value="NO" style="text;html=1;align=center;verticalAlign=middle;resizable=0;points=[];autosize=1;strokeColor=none;fillColor=none;" vertex="1" parent="1">
          <mxGeometry x="20" y="158" width="40" height="30" as="geometry" />
        </mxCell>
        <mxCell id="qcfkSIcu1BjDuyAQSuf_-25" value="" style="endArrow=classic;html=1;rounded=0;exitX=-0.1;exitY=1.133;exitDx=0;exitDy=0;exitPerimeter=0;" edge="1" parent="1" source="qcfkSIcu1BjDuyAQSuf_-24">
          <mxGeometry width="50" height="50" relative="1" as="geometry">
            <mxPoint x="270" y="170" as="sourcePoint" />
            <mxPoint x="16" y="280" as="targetPoint" />
          </mxGeometry>
        </mxCell>
        <mxCell id="qcfkSIcu1BjDuyAQSuf_-26" value="ENTER VALID DETAILS" style="rounded=0;whiteSpace=wrap;html=1;" vertex="1" parent="1">
          <mxGeometry x="-40" y="280" width="120" height="60" as="geometry" />
        </mxCell>
        <mxCell id="qcfkSIcu1BjDuyAQSuf_-28" value="" style="endArrow=classic;html=1;rounded=0;entryX=0.358;entryY=-0.083;entryDx=0;entryDy=0;entryPerimeter=0;" edge="1" parent="1">
          <mxGeometry width="50" height="50" relative="1" as="geometry">
            <mxPoint x="210" y="180" as="sourcePoint" />
            <mxPoint x="212.96000000000004" y="265.02" as="targetPoint" />
          </mxGeometry>
        </mxCell>
        <mxCell id="qcfkSIcu1BjDuyAQSuf_-29" value="ENTER UPI PIN" style="rounded=1;whiteSpace=wrap;html=1;" vertex="1" parent="1">
          <mxGeometry x="160" y="270" width="120" height="40" as="geometry" />
        </mxCell>
        <mxCell id="qcfkSIcu1BjDuyAQSuf_-30" value="" style="endArrow=classic;html=1;rounded=0;exitX=0.5;exitY=1;exitDx=0;exitDy=0;" edge="1" parent="1" source="qcfkSIcu1BjDuyAQSuf_-29">
          <mxGeometry width="50" height="50" relative="1" as="geometry">
            <mxPoint x="270" y="370" as="sourcePoint" />
            <mxPoint x="220" y="380" as="targetPoint" />
          </mxGeometry>
        </mxCell>
        <mxCell id="qcfkSIcu1BjDuyAQSuf_-31" value="PIN VALID" style="rhombus;whiteSpace=wrap;html=1;" vertex="1" parent="1">
          <mxGeometry x="180" y="380" width="80" height="80" as="geometry" />
        </mxCell>
        <mxCell id="qcfkSIcu1BjDuyAQSuf_-33" value="PAYMENT SUCCESSFUL" style="rounded=0;whiteSpace=wrap;html=1;" vertex="1" parent="1">
          <mxGeometry x="290" y="520" width="90" height="50" as="geometry" />
        </mxCell>
        <mxCell id="qcfkSIcu1BjDuyAQSuf_-34" value="" style="endArrow=classic;html=1;rounded=0;exitX=1;exitY=0.5;exitDx=0;exitDy=0;" edge="1" parent="1" source="qcfkSIcu1BjDuyAQSuf_-31">
          <mxGeometry width="50" height="50" relative="1" as="geometry">
            <mxPoint x="270" y="370" as="sourcePoint" />
            <mxPoint x="350" y="520" as="targetPoint" />
            <Array as="points">
              <mxPoint x="350" y="420" />
            </Array>
          </mxGeometry>
        </mxCell>
        <mxCell id="qcfkSIcu1BjDuyAQSuf_-35" value="YES" style="text;html=1;align=center;verticalAlign=middle;resizable=0;points=[];autosize=1;strokeColor=none;fillColor=none;" vertex="1" parent="1">
          <mxGeometry x="255" y="388" width="50" height="30" as="geometry" />
        </mxCell>
        <mxCell id="qcfkSIcu1BjDuyAQSuf_-36" value="" style="endArrow=classic;html=1;rounded=0;exitX=0;exitY=0.5;exitDx=0;exitDy=0;" edge="1" parent="1" source="qcfkSIcu1BjDuyAQSuf_-31">
          <mxGeometry width="50" height="50" relative="1" as="geometry">
            <mxPoint x="270" y="370" as="sourcePoint" />
            <mxPoint x="50" y="520" as="targetPoint" />
            <Array as="points">
              <mxPoint x="50" y="420" />
            </Array>
          </mxGeometry>
        </mxCell>
        <mxCell id="qcfkSIcu1BjDuyAQSuf_-37" value="NO" style="text;html=1;align=center;verticalAlign=middle;resizable=0;points=[];autosize=1;strokeColor=none;fillColor=none;" vertex="1" parent="1">
          <mxGeometry x="100" y="398" width="40" height="30" as="geometry" />
        </mxCell>
        <mxCell id="qcfkSIcu1BjDuyAQSuf_-38" value="PLEASE ENTER VALID PIN" style="rounded=0;whiteSpace=wrap;html=1;" vertex="1" parent="1">
          <mxGeometry x="-10" y="520" width="120" height="60" as="geometry" />
        </mxCell>
        <mxCell id="qcfkSIcu1BjDuyAQSuf_-39" value="" style="endArrow=classic;html=1;rounded=0;exitX=0.5;exitY=1;exitDx=0;exitDy=0;" edge="1" parent="1" source="qcfkSIcu1BjDuyAQSuf_-13">
          <mxGeometry width="50" height="50" relative="1" as="geometry">
            <mxPoint x="270" y="70" as="sourcePoint" />
            <mxPoint x="291" y="10" as="targetPoint" />
          </mxGeometry>
        </mxCell>
        <mxCell id="qcfkSIcu1BjDuyAQSuf_-40" value="ENTER CARD DETAILS" style="rounded=1;whiteSpace=wrap;html=1;" vertex="1" parent="1">
          <mxGeometry x="230" y="10" width="120" height="60" as="geometry" />
        </mxCell>
        <mxCell id="qcfkSIcu1BjDuyAQSuf_-41" value="" style="endArrow=classic;html=1;rounded=0;exitX=0.75;exitY=1;exitDx=0;exitDy=0;" edge="1" parent="1" source="qcfkSIcu1BjDuyAQSuf_-40">
          <mxGeometry width="50" height="50" relative="1" as="geometry">
            <mxPoint x="320" y="80" as="sourcePoint" />
            <mxPoint x="320" y="130" as="targetPoint" />
            <Array as="points" />
          </mxGeometry>
        </mxCell>
        <mxCell id="qcfkSIcu1BjDuyAQSuf_-42" value="&lt;font style=&quot;font-size: 8px;&quot;&gt;DETAILS VALID&lt;/font&gt;" style="rhombus;whiteSpace=wrap;html=1;" vertex="1" parent="1">
          <mxGeometry x="300" y="131" width="40" height="47" as="geometry" />
        </mxCell>
        <mxCell id="qcfkSIcu1BjDuyAQSuf_-43" value="" style="endArrow=classic;html=1;rounded=0;exitX=0;exitY=0.5;exitDx=0;exitDy=0;" edge="1" parent="1" source="qcfkSIcu1BjDuyAQSuf_-42">
          <mxGeometry width="50" height="50" relative="1" as="geometry">
            <mxPoint x="270" y="270" as="sourcePoint" />
            <mxPoint x="280" y="155" as="targetPoint" />
          </mxGeometry>
        </mxCell>
        <mxCell id="qcfkSIcu1BjDuyAQSuf_-44" value="" style="endArrow=classic;html=1;rounded=0;exitX=1;exitY=0.5;exitDx=0;exitDy=0;" edge="1" parent="1" source="qcfkSIcu1BjDuyAQSuf_-42">
          <mxGeometry width="50" height="50" relative="1" as="geometry">
            <mxPoint x="270" y="270" as="sourcePoint" />
            <mxPoint x="360" y="155" as="targetPoint" />
          </mxGeometry>
        </mxCell>
        <mxCell id="qcfkSIcu1BjDuyAQSuf_-45" value="NO" style="text;html=1;align=center;verticalAlign=middle;resizable=0;points=[];autosize=1;strokeColor=none;fillColor=none;" vertex="1" parent="1">
          <mxGeometry x="280" y="118" width="40" height="30" as="geometry" />
        </mxCell>
        <mxCell id="qcfkSIcu1BjDuyAQSuf_-46" value="YES" style="text;html=1;align=center;verticalAlign=middle;resizable=0;points=[];autosize=1;strokeColor=none;fillColor=none;" vertex="1" parent="1">
          <mxGeometry x="325" y="118" width="50" height="30" as="geometry" />
        </mxCell>
        <mxCell id="qcfkSIcu1BjDuyAQSuf_-47" value="ENTER VALID DETAILS" style="rounded=0;whiteSpace=wrap;html=1;" vertex="1" parent="1">
          <mxGeometry x="240" y="188" width="80" height="42" as="geometry" />
        </mxCell>
        <mxCell id="qcfkSIcu1BjDuyAQSuf_-48" value="" style="endArrow=classic;html=1;rounded=0;entryX=0.613;entryY=-0.048;entryDx=0;entryDy=0;entryPerimeter=0;" edge="1" parent="1" target="qcfkSIcu1BjDuyAQSuf_-47">
          <mxGeometry width="50" height="50" relative="1" as="geometry">
            <mxPoint x="290" y="160" as="sourcePoint" />
            <mxPoint x="320" y="220" as="targetPoint" />
          </mxGeometry>
        </mxCell>
        <mxCell id="qcfkSIcu1BjDuyAQSuf_-49" value="" style="endArrow=classic;html=1;rounded=0;" edge="1" parent="1">
          <mxGeometry width="50" height="50" relative="1" as="geometry">
            <mxPoint x="360" y="160" as="sourcePoint" />
            <mxPoint x="360" y="180" as="targetPoint" />
          </mxGeometry>
        </mxCell>
        <mxCell id="qcfkSIcu1BjDuyAQSuf_-50" value="PAYMENT SUCCESSFUL" style="rounded=0;whiteSpace=wrap;html=1;" vertex="1" parent="1">
          <mxGeometry x="325" y="188" width="85" height="42" as="geometry" />
        </mxCell>
        <mxCell id="qcfkSIcu1BjDuyAQSuf_-52" value="" style="endArrow=classic;html=1;rounded=0;" edge="1" parent="1">
          <mxGeometry width="50" height="50" relative="1" as="geometry">
            <mxPoint x="550" y="-70" as="sourcePoint" />
            <mxPoint x="550" as="targetPoint" />
          </mxGeometry>
        </mxCell>
        <mxCell id="qcfkSIcu1BjDuyAQSuf_-53" value="SELECT BANK" style="rounded=1;whiteSpace=wrap;html=1;" vertex="1" parent="1">
          <mxGeometry x="490" width="120" height="40" as="geometry" />
        </mxCell>
        <mxCell id="qcfkSIcu1BjDuyAQSuf_-54" value="" style="endArrow=classic;html=1;rounded=0;exitX=0.5;exitY=1;exitDx=0;exitDy=0;" edge="1" parent="1" source="qcfkSIcu1BjDuyAQSuf_-53">
          <mxGeometry width="50" height="50" relative="1" as="geometry">
            <mxPoint x="560" y="50" as="sourcePoint" />
            <mxPoint x="550" y="80" as="targetPoint" />
          </mxGeometry>
        </mxCell>
        <mxCell id="qcfkSIcu1BjDuyAQSuf_-55" value="ENTER USER ID" style="rounded=1;whiteSpace=wrap;html=1;" vertex="1" parent="1">
          <mxGeometry x="490" y="78" width="120" height="40" as="geometry" />
        </mxCell>
        <mxCell id="qcfkSIcu1BjDuyAQSuf_-56" value="" style="endArrow=classic;html=1;rounded=0;exitX=0.5;exitY=1;exitDx=0;exitDy=0;" edge="1" parent="1" source="qcfkSIcu1BjDuyAQSuf_-55">
          <mxGeometry width="50" height="50" relative="1" as="geometry">
            <mxPoint x="530" y="170" as="sourcePoint" />
            <mxPoint x="550" y="150" as="targetPoint" />
          </mxGeometry>
        </mxCell>
        <mxCell id="qcfkSIcu1BjDuyAQSuf_-57" value="&lt;font style=&quot;font-size: 10px;&quot;&gt;ID&amp;nbsp;&lt;/font&gt;&lt;div&gt;&lt;font style=&quot;font-size: 10px;&quot;&gt;VALID&lt;/font&gt;&lt;/div&gt;" style="rhombus;whiteSpace=wrap;html=1;" vertex="1" parent="1">
          <mxGeometry x="525" y="148" width="50" height="52" as="geometry" />
        </mxCell>
        <mxCell id="qcfkSIcu1BjDuyAQSuf_-58" value="" style="endArrow=classic;html=1;rounded=0;exitX=0;exitY=0.5;exitDx=0;exitDy=0;" edge="1" parent="1" source="qcfkSIcu1BjDuyAQSuf_-57">
          <mxGeometry width="50" height="50" relative="1" as="geometry">
            <mxPoint x="530" y="170" as="sourcePoint" />
            <mxPoint x="480" y="174" as="targetPoint" />
          </mxGeometry>
        </mxCell>
        <mxCell id="qcfkSIcu1BjDuyAQSuf_-59" value="" style="endArrow=classic;html=1;rounded=0;exitX=1;exitY=0.5;exitDx=0;exitDy=0;" edge="1" parent="1" source="qcfkSIcu1BjDuyAQSuf_-57">
          <mxGeometry width="50" height="50" relative="1" as="geometry">
            <mxPoint x="530" y="170" as="sourcePoint" />
            <mxPoint x="610" y="174" as="targetPoint" />
          </mxGeometry>
        </mxCell>
        <mxCell id="qcfkSIcu1BjDuyAQSuf_-60" value="NO" style="text;html=1;align=center;verticalAlign=middle;resizable=0;points=[];autosize=1;strokeColor=none;fillColor=none;" vertex="1" parent="1">
          <mxGeometry x="480" y="148" width="40" height="30" as="geometry" />
        </mxCell>
        <mxCell id="qcfkSIcu1BjDuyAQSuf_-61" value="YES" style="text;html=1;align=center;verticalAlign=middle;resizable=0;points=[];autosize=1;strokeColor=none;fillColor=none;" vertex="1" parent="1">
          <mxGeometry x="565" y="138" width="50" height="30" as="geometry" />
        </mxCell>
        <mxCell id="qcfkSIcu1BjDuyAQSuf_-62" value="" style="endArrow=classic;html=1;rounded=0;exitX=0.15;exitY=1.2;exitDx=0;exitDy=0;exitPerimeter=0;" edge="1" parent="1" source="qcfkSIcu1BjDuyAQSuf_-60">
          <mxGeometry width="50" height="50" relative="1" as="geometry">
            <mxPoint x="530" y="170" as="sourcePoint" />
            <mxPoint x="486" y="220" as="targetPoint" />
          </mxGeometry>
        </mxCell>
        <mxCell id="qcfkSIcu1BjDuyAQSuf_-63" value="ENTER VALID ID" style="rounded=0;whiteSpace=wrap;html=1;" vertex="1" parent="1">
          <mxGeometry x="445" y="220" width="80" height="32" as="geometry" />
        </mxCell>
        <mxCell id="qcfkSIcu1BjDuyAQSuf_-64" value="" style="endArrow=classic;html=1;rounded=0;" edge="1" parent="1">
          <mxGeometry width="50" height="50" relative="1" as="geometry">
            <mxPoint x="610" y="180" as="sourcePoint" />
            <mxPoint x="610" y="220" as="targetPoint" />
          </mxGeometry>
        </mxCell>
        <mxCell id="qcfkSIcu1BjDuyAQSuf_-65" value="ENTER PASSWORD" style="rounded=1;whiteSpace=wrap;html=1;" vertex="1" parent="1">
          <mxGeometry x="550" y="220" width="120" height="30" as="geometry" />
        </mxCell>
        <mxCell id="qcfkSIcu1BjDuyAQSuf_-66" value="" style="endArrow=classic;html=1;rounded=0;exitX=0.5;exitY=1;exitDx=0;exitDy=0;" edge="1" parent="1" source="qcfkSIcu1BjDuyAQSuf_-65">
          <mxGeometry width="50" height="50" relative="1" as="geometry">
            <mxPoint x="530" y="170" as="sourcePoint" />
            <mxPoint x="610" y="290" as="targetPoint" />
          </mxGeometry>
        </mxCell>
        <mxCell id="qcfkSIcu1BjDuyAQSuf_-67" value="&lt;font style=&quot;font-size: 9px;&quot;&gt;VALID PASSWORD&lt;/font&gt;" style="rhombus;whiteSpace=wrap;html=1;" vertex="1" parent="1">
          <mxGeometry x="570" y="290" width="80" height="50" as="geometry" />
        </mxCell>
        <mxCell id="qcfkSIcu1BjDuyAQSuf_-69" value="" style="endArrow=classic;html=1;rounded=0;exitX=1;exitY=0.5;exitDx=0;exitDy=0;" edge="1" parent="1" source="qcfkSIcu1BjDuyAQSuf_-67">
          <mxGeometry width="50" height="50" relative="1" as="geometry">
            <mxPoint x="530" y="370" as="sourcePoint" />
            <mxPoint x="720" y="390" as="targetPoint" />
            <Array as="points">
              <mxPoint x="720" y="320" />
            </Array>
          </mxGeometry>
        </mxCell>
        <mxCell id="qcfkSIcu1BjDuyAQSuf_-70" value="" style="endArrow=classic;html=1;rounded=0;exitX=0;exitY=0.5;exitDx=0;exitDy=0;" edge="1" parent="1" source="qcfkSIcu1BjDuyAQSuf_-67">
          <mxGeometry width="50" height="50" relative="1" as="geometry">
            <mxPoint x="530" y="370" as="sourcePoint" />
            <mxPoint x="500" y="380" as="targetPoint" />
            <Array as="points">
              <mxPoint x="500" y="320" />
            </Array>
          </mxGeometry>
        </mxCell>
        <mxCell id="qcfkSIcu1BjDuyAQSuf_-71" value="NO" style="text;html=1;align=center;verticalAlign=middle;resizable=0;points=[];autosize=1;strokeColor=none;fillColor=none;" vertex="1" parent="1">
          <mxGeometry x="530" y="288" width="40" height="30" as="geometry" />
        </mxCell>
        <mxCell id="qcfkSIcu1BjDuyAQSuf_-72" value="YES" style="text;html=1;align=center;verticalAlign=middle;resizable=0;points=[];autosize=1;strokeColor=none;fillColor=none;" vertex="1" parent="1">
          <mxGeometry x="665" y="288" width="50" height="30" as="geometry" />
        </mxCell>
        <mxCell id="qcfkSIcu1BjDuyAQSuf_-73" value="PLEASE ENTER VALID PSW" style="rounded=0;whiteSpace=wrap;html=1;" vertex="1" parent="1">
          <mxGeometry x="440" y="380" width="120" height="60" as="geometry" />
        </mxCell>
        <mxCell id="qcfkSIcu1BjDuyAQSuf_-74" value="PAYMENT SUCCESSFUL" style="rounded=0;whiteSpace=wrap;html=1;" vertex="1" parent="1">
          <mxGeometry x="660" y="388" width="120" height="60" as="geometry" />
        </mxCell>
        <mxCell id="qcfkSIcu1BjDuyAQSuf_-75" value="" style="endArrow=classic;html=1;rounded=0;exitX=1;exitY=1;exitDx=0;exitDy=0;" edge="1" parent="1">
          <mxGeometry width="50" height="50" relative="1" as="geometry">
            <mxPoint x="780" y="-70" as="sourcePoint" />
            <mxPoint x="715" y="560" as="targetPoint" />
            <Array as="points">
              <mxPoint x="790" y="240" />
              <mxPoint x="800" y="560" />
            </Array>
          </mxGeometry>
        </mxCell>
        <mxCell id="qcfkSIcu1BjDuyAQSuf_-77" value="ORDER PLACED" style="rounded=0;whiteSpace=wrap;html=1;" vertex="1" parent="1">
          <mxGeometry x="595" y="530" width="120" height="60" as="geometry" />
        </mxCell>
        <mxCell id="qcfkSIcu1BjDuyAQSuf_-78" value="END" style="ellipse;whiteSpace=wrap;html=1;aspect=fixed;" vertex="1" parent="1">
          <mxGeometry x="345" y="720" width="80" height="80" as="geometry" />
        </mxCell>
        <mxCell id="qcfkSIcu1BjDuyAQSuf_-79" value="" style="endArrow=classic;html=1;rounded=0;exitX=0.869;exitY=1.177;exitDx=0;exitDy=0;exitPerimeter=0;entryX=0.691;entryY=0.004;entryDx=0;entryDy=0;entryPerimeter=0;" edge="1" parent="1" source="qcfkSIcu1BjDuyAQSuf_-50" target="qcfkSIcu1BjDuyAQSuf_-78">
          <mxGeometry width="50" height="50" relative="1" as="geometry">
            <mxPoint x="350" y="310" as="sourcePoint" />
            <mxPoint x="430" y="610" as="targetPoint" />
          </mxGeometry>
        </mxCell>
        <mxCell id="qcfkSIcu1BjDuyAQSuf_-80" value="" style="endArrow=classic;html=1;rounded=0;exitX=0.162;exitY=1.12;exitDx=0;exitDy=0;exitPerimeter=0;entryX=0;entryY=0.5;entryDx=0;entryDy=0;" edge="1" parent="1" source="qcfkSIcu1BjDuyAQSuf_-33" target="qcfkSIcu1BjDuyAQSuf_-78">
          <mxGeometry width="50" height="50" relative="1" as="geometry">
            <mxPoint x="350" y="450" as="sourcePoint" />
            <mxPoint x="305" y="770" as="targetPoint" />
            <Array as="points">
              <mxPoint x="305" y="760" />
            </Array>
          </mxGeometry>
        </mxCell>
        <mxCell id="qcfkSIcu1BjDuyAQSuf_-81" value="" style="endArrow=classic;html=1;rounded=0;exitX=0;exitY=0.75;exitDx=0;exitDy=0;entryX=1;entryY=0.5;entryDx=0;entryDy=0;" edge="1" parent="1" source="qcfkSIcu1BjDuyAQSuf_-74" target="qcfkSIcu1BjDuyAQSuf_-78">
          <mxGeometry width="50" height="50" relative="1" as="geometry">
            <mxPoint x="350" y="460" as="sourcePoint" />
            <mxPoint x="400" y="410" as="targetPoint" />
            <Array as="points">
              <mxPoint x="570" y="433" />
              <mxPoint x="570" y="760" />
            </Array>
          </mxGeometry>
        </mxCell>
        <mxCell id="qcfkSIcu1BjDuyAQSuf_-82" value="" style="endArrow=classic;html=1;rounded=0;exitX=0.75;exitY=1;exitDx=0;exitDy=0;entryX=1;entryY=1;entryDx=0;entryDy=0;" edge="1" parent="1" source="qcfkSIcu1BjDuyAQSuf_-77" target="qcfkSIcu1BjDuyAQSuf_-78">
          <mxGeometry width="50" height="50" relative="1" as="geometry">
            <mxPoint x="350" y="600" as="sourcePoint" />
            <mxPoint x="400" y="550" as="targetPoint" />
            <Array as="points">
              <mxPoint x="685" y="780" />
            </Array>
          </mxGeometry>
        </mxCell>
      </root>
    </mxGraphModel>
  </diagram>
</mxfile>
